<?xml version="1.0" standalone="no"?>
<!DOCTYPE svg PUBLIC "-//W3C//DTD SVG 20010904//EN"
 "http://www.w3.org/TR/2001/REC-SVG-20010904/DTD/svg10.dtd">
<svg version="1.0" xmlns="http://www.w3.org/2000/svg"
 width="500.000000pt" height="500.000000pt" viewBox="0 0 500.000000 500.000000"
 preserveAspectRatio="xMidYMid meet">

<g transform="translate(0.000000,500.000000) scale(0.100000,-0.100000)"
fill="#000000" stroke="none">
<path d="M2295 3824 c-152 -37 -185 -48 -260 -84 -85 -42 -177 -117 -263 -215
-105 -119 -163 -225 -242 -440 -28 -77 -58 -156 -65 -175 -8 -19 -22 -59 -31
-87 -16 -51 -30 -63 -49 -44 -6 5 -35 19 -65 30 -79 30 -274 30 -340 0 -24
-11 -47 -25 -51 -30 -3 -6 -38 -15 -78 -19 -105 -14 -161 -42 -231 -117 -64
-68 -72 -88 -40 -98 48 -15 81 -60 149 -199 39 -81 85 -159 105 -181 20 -21
36 -43 36 -50 0 -23 -157 -125 -192 -125 -9 0 -21 -7 -29 -16 -11 -13 -10 -31
6 -107 45 -227 165 -405 338 -501 89 -50 231 -86 340 -86 81 0 87 -1 87 -20 0
-24 -19 -56 -69 -119 -42 -53 -41 -56 60 -133 147 -115 281 -167 448 -175 204
-10 351 44 482 178 42 43 79 75 83 72 3 -4 6 -16 6 -28 0 -58 101 -156 213
-205 286 -126 837 -116 1110 21 90 46 133 83 161 142 14 29 62 194 107 367 44
173 95 359 111 413 27 86 30 107 24 168 -5 44 -4 69 3 69 5 0 38 33 71 73 67
79 131 199 156 292 16 63 31 344 21 387 -7 25 -7 25 -99 20 -89 -4 -99 -2
-214 37 -111 38 -129 41 -225 41 -151 0 -272 -37 -365 -110 -20 -17 -42 -29
-47 -27 -6 2 -16 30 -23 63 -37 180 -174 457 -315 637 -66 84 -168 185 -235
233 -82 59 -285 139 -387 153 -97 14 -126 13 -202 -5z m320 -121 c128 -45 204
-92 304 -188 152 -145 258 -301 350 -516 51 -118 71 -189 53 -189 -5 0 -23 7
-38 15 -51 26 -148 11 -194 -30 -13 -12 -19 -13 -22 -4 -7 21 -109 14 -157
-10 -36 -19 -61 -48 -97 -115 -6 -11 -39 -37 -75 -58 -35 -22 -83 -58 -107
-81 -49 -47 -119 -150 -147 -215 -16 -38 -28 -48 -89 -79 -187 -94 -275 -280
-197 -418 31 -55 70 -171 82 -245 3 -25 13 -59 20 -77 7 -18 10 -35 7 -39 -4
-3 -42 2 -85 11 -205 45 -363 133 -497 276 -42 44 -76 84 -76 87 0 4 23 13 52
20 59 14 85 34 104 79 27 64 14 116 -48 196 -39 49 -60 60 -92 47 -35 -13 -33
-29 14 -101 44 -68 45 -71 30 -99 -43 -79 -152 -20 -193 104 -23 68 -22 160 4
216 11 24 44 70 74 101 30 32 55 64 55 72 0 8 -11 22 -24 30 -20 14 -27 14
-52 1 -16 -8 -50 -38 -76 -67 -27 -30 -48 -45 -48 -37 0 9 7 72 15 140 17 132
64 314 95 365 10 16 25 57 34 91 38 146 112 304 196 416 63 83 180 193 253
236 67 40 182 81 257 92 92 13 237 0 315 -27z m1366 -919 c30 -9 72 -26 94
-38 29 -15 65 -22 129 -26 87 -5 122 -20 78 -34 -19 -7 -47 -61 -72 -141 -25
-79 -81 -172 -153 -249 l-72 -79 -55 25 c-51 23 -93 69 -78 84 3 3 32 9 64 14
70 10 167 45 185 66 10 12 9 18 -4 31 -15 16 -24 15 -114 -7 -113 -28 -148
-29 -193 -5 l-32 17 38 26 c21 14 91 52 156 84 115 57 133 73 104 97 -18 15
-48 7 -150 -36 -43 -18 -81 -31 -84 -28 -3 2 7 23 22 46 30 44 28 69 -4 69
-40 0 -90 -77 -90 -138 0 -47 -43 -70 -70 -37 -20 24 -146 105 -164 105 -28 0
-18 27 22 58 119 94 310 135 443 96z m-2657 -72 c42 -20 66 -37 64 -44 -3 -7
-11 -44 -18 -83 -6 -38 -14 -80 -16 -93 -9 -45 -24 -10 -24 54 0 71 -19 114
-51 114 -31 0 -42 -35 -23 -75 21 -45 12 -55 -29 -31 -82 48 -149 76 -182 76
-32 0 -36 -3 -33 -22 2 -17 23 -34 78 -64 41 -22 96 -54 122 -71 45 -29 47
-31 30 -47 -23 -20 -67 -20 -152 0 -127 28 -127 28 -135 5 -4 -13 -1 -28 5
-36 19 -23 141 -55 211 -55 46 0 73 -6 97 -20 18 -11 43 -20 56 -20 24 0 36
-17 36 -48 0 -15 -14 -17 -98 -19 -53 -1 -117 -7 -142 -13 -90 -23 -93 -23
-155 14 -82 49 -115 90 -182 224 -34 70 -64 117 -75 120 -27 7 -6 37 45 64 37
21 56 23 172 23 72 0 131 2 133 5 7 11 -11 40 -29 45 -10 4 -19 10 -19 15 0
14 39 18 145 16 88 -2 108 -6 169 -34z m1954 29 c10 -6 4 -13 -23 -27 -40 -21
-85 -91 -85 -131 0 -29 -17 -29 -47 -1 -39 37 -23 116 31 149 32 19 101 25
124 10z m-253 -53 c-21 -97 -22 -107 -9 -112 23 -9 16 -36 -12 -48 -22 -10
-28 -10 -39 5 -7 9 -18 17 -25 17 -21 0 -39 33 -40 73 0 53 43 97 95 97 37 0
37 0 30 -32z m346 -75 c38 -9 69 -19 69 -23 0 -10 -74 -40 -98 -40 -11 0 -24
5 -27 10 -3 6 -15 10 -25 10 -25 0 -33 15 -20 40 13 24 14 24 101 3z m-534
-90 c7 -15 12 -27 10 -28 -37 -25 -102 -45 -127 -40 -47 10 -36 30 44 72 53
28 59 28 73 -4z m743 -21 c0 -4 -16 -15 -36 -24 -33 -15 -39 -15 -60 -1 -38
24 -28 33 36 33 33 0 60 -4 60 -8z m-250 -38 c59 -18 57 -22 -24 -44 -48 -13
-49 -13 -73 14 -12 15 -23 31 -23 37 0 14 60 11 120 -7z m-208 -70 c70 -43 71
-46 32 -120 -19 -36 -34 -80 -34 -97 0 -48 -9 -54 -75 -54 -33 0 -77 -7 -98
-16 l-37 -16 -57 39 c-31 22 -62 40 -70 40 -17 0 -16 21 4 94 14 49 27 71 71
115 l54 54 83 -6 c67 -5 93 -11 127 -33z m553 6 c34 -13 23 -30 -20 -30 -43 0
-65 9 -65 26 0 17 46 19 85 4z m-1010 -31 c0 -20 -6 -25 -32 -27 -27 -3 -33 0
-33 16 0 19 35 43 55 38 6 -1 10 -14 10 -27z m905 -67 c67 -70 120 -168 120
-222 0 -50 -12 -57 -58 -29 -53 32 -230 40 -300 14 -26 -10 -54 -24 -63 -32
-37 -32 -69 13 -69 98 0 133 105 229 250 229 l64 0 56 -58z m178 -28 c12 -8
22 -20 22 -26 0 -6 8 -17 18 -24 13 -10 14 -15 5 -25 -15 -15 -63 -4 -63 15 0
7 -7 19 -15 26 -18 15 -20 50 -2 50 7 0 23 -7 35 -16z m-1142 -29 c8 -21 -37
-74 -63 -74 -13 -1 -23 4 -23 9 0 6 5 10 10 10 6 0 10 9 10 19 0 35 12 51 36
51 14 0 27 -7 30 -15z m-146 -94 c0 -38 -97 -91 -114 -63 -6 10 83 80 102 81
6 1 12 -8 12 -18z m-1066 -35 c15 -9 25 -29 30 -55 6 -39 43 -127 68 -163 17
-24 5 -32 -34 -20 -18 6 -50 13 -70 17 -25 4 -57 22 -94 55 -86 76 -174 101
-174 51 0 -14 15 -27 46 -43 26 -13 47 -28 48 -33 0 -6 -32 -11 -77 -11 -128
-3 -184 -13 -190 -33 -2 -11 -2 -23 2 -29 3 -5 80 -12 171 -15 228 -8 247 -16
171 -76 -44 -35 -98 -57 -186 -75 -57 -12 -60 -14 -60 -42 l0 -29 60 2 c72 3
139 23 203 63 45 27 52 28 124 23 84 -6 97 -18 69 -61 -13 -21 -35 -37 -144
-100 -27 -15 -165 -11 -254 8 -57 12 -64 12 -81 -4 -18 -16 -22 -15 -68 4 -54
24 -95 58 -125 107 -27 43 -69 152 -69 178 0 11 -7 30 -15 42 -17 25 -28 15
125 118 125 85 152 99 250 127 79 22 237 19 274 -6z m1358 -23 c95 -37 133
-89 144 -196 8 -79 -3 -101 -42 -86 -14 5 -53 9 -87 9 -117 1 -357 78 -357
116 0 54 88 140 170 165 44 13 128 9 172 -8z m1107 -8 c18 -17 6 -35 -24 -35
-23 0 -45 25 -45 50 0 15 49 4 69 -15z m149 -16 c27 -24 31 -33 22 -45 -20
-23 -35 -16 -50 24 -8 20 -16 40 -18 45 -8 16 15 5 46 -24z m-871 -55 c29 -37
29 -54 -1 -98 -13 -19 -30 -56 -37 -81 l-13 -45 -51 0 -50 0 -2 91 c-1 67 -6
96 -17 108 -21 24 -20 28 12 46 18 10 45 14 81 12 46 -3 58 -9 78 -33z m-819
-6 c7 -7 12 -17 12 -23 0 -17 -62 -95 -72 -89 -15 9 -8 56 13 90 23 37 29 40
47 22z m1272 -36 c82 -43 142 -117 111 -136 -40 -25 -506 -65 -526 -45 -10 11
20 73 55 113 32 36 86 70 140 87 50 16 172 5 220 -19z m311 -22 c23 -19 23
-20 5 -35 -25 -19 -56 -3 -56 30 0 30 19 32 51 5z m169 -56 c0 -42 -13 -44
-30 -3 -11 26 -11 32 0 39 21 13 30 2 30 -36z m-1700 -54 c0 -34 -15 -47 -35
-30 -20 17 -19 47 2 59 24 13 33 5 33 -29z m1592 -42 c-12 -12 -99 -48 -118
-48 -5 0 -19 6 -29 14 -18 13 -17 14 7 30 15 9 48 23 75 30 39 10 51 10 63 -1
11 -10 11 -16 2 -25z m-1405 -17 c40 -12 86 -21 103 -21 25 0 30 -4 30 -25 0
-20 -5 -25 -24 -25 -30 0 -136 26 -193 47 -38 14 -41 17 -30 35 7 10 19 17 27
14 8 -2 48 -14 87 -25z m1173 -40 c0 -24 -5 -27 -53 -36 -35 -7 -37 -6 -37 17
0 33 7 38 52 38 31 0 38 -4 38 -19z m-560 -26 c135 0 277 2 315 5 66 5 70 4
73 -17 3 -20 -2 -21 -93 -28 -115 -9 -652 -1 -677 10 -10 4 -18 16 -18 28 0
19 3 20 78 11 42 -5 187 -9 322 -9z m-735 -55 c47 0 71 -17 83 -58 18 -61 17
-65 -22 -58 -39 8 -51 -3 -42 -39 5 -18 17 -27 45 -35 44 -12 60 -26 63 -61 3
-22 0 -24 -30 -21 -22 2 -34 -2 -38 -12 -9 -25 21 -63 55 -69 21 -5 35 -15 41
-32 17 -44 13 -58 -14 -53 -14 3 -30 2 -37 -2 -20 -13 -2 -56 28 -68 47 -18
106 -32 115 -26 14 9 9 56 -17 180 -14 65 -25 120 -25 122 0 2 10 2 23 -2 12
-3 69 -14 127 -23 207 -34 826 -18 929 23 43 18 41 18 41 -8 0 -49 -7 -51
-250 -89 -127 -20 -179 -22 -420 -21 -151 1 -288 3 -305 4 -21 2 -30 -2 -33
-13 -3 -18 24 -29 71 -29 16 0 35 -7 43 -15 9 -8 29 -15 45 -15 27 0 29 -2 29
-40 l0 -39 -67 -3 c-65 -3 -68 -4 -71 -30 -4 -31 -1 -32 123 -48 102 -14 448
-9 615 9 58 6 141 20 185 32 116 30 135 33 135 21 0 -42 -81 -66 -405 -118
-169 -28 -644 -21 -755 10 -60 17 -72 12 -63 -22 4 -17 8 -20 19 -11 14 11 68
-5 143 -43 20 -10 50 -18 69 -18 44 0 72 -16 72 -41 0 -30 -20 -32 -110 -9
-94 24 -135 42 -143 64 -5 11 -15 14 -35 10 -43 -9 -127 61 -142 118 -14 56
-113 418 -144 530 -13 47 -22 89 -19 92 3 3 19 -6 35 -19 16 -14 40 -25 53
-25z m1555 -6 c0 -14 -4 -33 -9 -43 -10 -17 -86 -49 -96 -39 -6 6 23 65 36 73
5 4 9 0 9 -7 0 -7 10 -1 21 15 26 34 39 35 39 1z m-2320 -18 c0 -3 -4 -8 -10
-11 -5 -3 -10 -1 -10 4 0 6 5 11 10 11 6 0 10 -2 10 -4z m2124 -48 c-4 -24
-10 -47 -15 -52 -10 -12 -196 -53 -276 -62 l-63 -6 0 36 c0 45 25 68 77 71 51
3 217 33 245 45 37 14 39 12 32 -32z m-929 -8 c63 0 75 -12 75 -68 l0 -45 -67
7 c-78 8 -244 36 -255 43 -5 2 -8 25 -8 52 l0 47 103 -18 c56 -9 125 -17 152
-18z m498 -55 c11 -66 12 -65 -167 -65 -88 0 -167 4 -175 9 -12 8 -13 18 -5
48 l9 38 160 5 c88 3 163 4 166 3 4 -1 9 -19 12 -38z m-1573 26 c0 -13 112
-87 153 -100 20 -7 37 -14 37 -17 0 -2 -18 -13 -40 -24 -31 -16 -45 -18 -59
-10 -43 22 -187 0 -185 -28 1 -7 2 -19 3 -27 1 -11 14 -15 51 -15 28 0 50 -4
50 -10 0 -5 -4 -10 -9 -10 -15 0 -185 -116 -210 -143 -12 -14 -20 -30 -16 -36
14 -24 64 -9 158 49 53 33 100 60 103 60 3 0 17 9 31 20 31 24 43 25 43 5 0
-22 -26 -62 -78 -118 -43 -47 -51 -79 -21 -85 24 -4 110 59 147 109 91 119
104 124 82 36 -22 -93 -1 -121 50 -67 21 22 31 46 36 80 5 41 10 49 32 55 39
10 46 -7 27 -64 -30 -93 -145 -180 -281 -215 -94 -24 -226 -21 -295 7 -68 29
-149 85 -149 105 0 8 11 35 24 61 13 25 32 72 42 104 25 85 88 172 169 234 64
49 105 66 105 44z m2146 -109 c-8 -8 -31 -21 -51 -28 -36 -12 -36 -12 -33 14
2 21 12 30 48 42 38 14 46 14 48 2 2 -8 -3 -21 -12 -30z m-36 -136 c0 -28 -14
-42 -53 -51 -23 -6 -27 -4 -27 14 0 13 12 29 33 41 41 26 47 25 47 -4z m-177
-69 c-13 -29 -89 -51 -229 -67 -124 -14 -124 -14 -124 14 0 53 5 56 114 57 60
1 127 8 166 18 72 19 89 14 73 -22z m-433 -49 l0 -38 -124 0 c-68 0 -131 3
-140 6 -18 7 -22 44 -6 60 5 5 68 9 140 9 l130 0 0 -37z m370 -234 c0 -19 -46
-39 -136 -58 -133 -28 -142 -29 -154 -7 -14 27 12 41 77 42 26 0 80 9 118 19
90 23 95 23 95 4z m-376 -51 c12 -30 -11 -36 -131 -34 -120 2 -140 8 -130 35
10 24 252 24 261 -1z"/>
<path d="M2777 3473 c-4 -3 -7 -19 -7 -35 0 -24 4 -28 29 -28 23 0 30 6 35 25
4 14 4 30 1 35 -7 11 -48 13 -58 3z"/>
<path d="M2459 3433 c-15 -41 -5 -55 38 -51 31 2 39 7 41 26 8 53 -60 74 -79
25z"/>
<path d="M2032 3428 c-17 -17 -15 -65 4 -72 25 -10 31 -7 49 20 16 24 16 27
-1 45 -20 22 -35 24 -52 7z"/>
<path d="M1781 3286 c-41 -66 -10 -103 47 -56 30 25 27 69 -5 81 -18 7 -25 2
-42 -25z"/>
<path d="M2005 3254 c-9 -9 -15 -28 -13 -43 3 -25 5 -26 78 -29 62 -2 77 0 87
14 17 23 16 39 -3 58 -22 22 -127 22 -149 0z"/>
<path d="M2576 3254 c-17 -16 -20 -33 -10 -58 5 -13 22 -16 79 -16 65 0 74 2
80 20 9 30 -3 57 -28 64 -42 11 -105 6 -121 -10z"/>
<path d="M2864 3136 c-21 -54 31 -89 62 -42 13 21 14 29 4 41 -16 19 -59 19
-66 1z"/>
<path d="M3055 3075 c-14 -13 -25 -33 -25 -45 0 -54 93 -83 124 -38 26 37 20
75 -14 93 -40 21 -57 19 -85 -10z"/>
<path d="M1816 3055 c-12 -34 -6 -53 19 -57 34 -7 58 12 53 43 -2 19 -10 25
-34 27 -22 2 -33 -2 -38 -13z"/>
<path d="M2050 3025 c-28 -45 -21 -95 15 -119 45 -29 83 -13 99 41 6 18 2 25
-18 34 -32 15 -42 40 -22 55 24 17 19 24 -18 24 -29 0 -38 -6 -56 -35z"/>
<path d="M2575 3034 c-31 -33 -33 -82 -4 -118 11 -14 31 -26 43 -26 25 0 60
33 70 66 5 18 1 22 -24 27 -22 5 -30 12 -30 27 0 11 7 23 15 26 26 10 17 24
-15 24 -21 0 -39 -9 -55 -26z"/>
<path d="M2224 2825 c-12 -31 2 -172 19 -199 28 -42 65 -60 122 -60 60 0 96
19 125 67 16 25 20 50 20 120 l0 88 -37 -8 c-49 -9 -180 -9 -216 0 -20 6 -29
4 -33 -8z m206 -132 c0 -28 -31 -53 -65 -53 -23 0 -37 8 -53 30 -12 16 -22 32
-22 35 0 3 32 5 70 5 59 0 70 -3 70 -17z"/>
<path d="M1694 2676 c-12 -31 0 -51 31 -51 27 0 30 4 33 33 3 30 1 32 -28 32
-17 0 -33 -6 -36 -14z"/>
<path d="M1956 2597 c-27 -20 -17 -51 17 -55 26 -3 28 -1 25 29 -3 37 -16 45
-42 26z"/>
<path d="M1996 2398 c-21 -30 -20 -54 4 -78 39 -39 100 -14 100 42 0 53 -74
79 -104 36z"/>
<path d="M2050 1996 c-10 -13 -10 -19 0 -32 12 -14 15 -14 29 0 14 15 14 17 0
32 -14 14 -17 14 -29 0z"/>
<path d="M2071 1761 c-22 -14 -4 -51 25 -51 22 0 25 4 22 27 -3 29 -23 39 -47
24z"/>
<path d="M3053 2273 c-7 -2 -13 -14 -13 -25 0 -27 30 -20 41 10 8 22 0 27 -28
15z"/>
<path d="M2897 2164 c-10 -11 3 -24 24 -24 10 0 19 7 19 15 0 15 -31 21 -43 9z"/>
<path d="M3470 2265 c0 -8 5 -15 10 -15 6 0 10 7 10 15 0 8 -4 15 -10 15 -5 0
-10 -7 -10 -15z"/>
<path d="M2745 1929 c-10 -15 1 -23 20 -15 9 3 13 10 10 16 -8 13 -22 13 -30
-1z"/>
<path d="M3000 1895 c0 -17 9 -19 28 -6 11 7 10 10 -3 15 -23 9 -25 8 -25 -9z"/>
<path d="M3378 1853 c-28 -7 -22 -33 7 -33 15 0 25 6 25 14 0 18 -10 24 -32
19z"/>
</g>
</svg>
